<?xml version="1.0" encoding="UTF-8"?><svg id="uuid-3abb13e9-d072-4166-90b3-fc4368ceab33" xmlns="http://www.w3.org/2000/svg" viewBox="0 0 245.11 117.02"><polygon points="32.98 11.66 62.73 50.36 62.73 11.66 79.66 11.66 79.66 79.38 64.9 79.38 34.67 39.71 34.67 79.38 18.25 79.35 18.22 11.66 32.98 11.66" style="fill:#fff;"/><polygon points="109.65 11.66 109.65 41.16 140.85 11.66 160.67 11.66 109.65 62.69 109.65 79.38 92.72 79.38 92.72 11.66 109.65 11.66" style="fill:#fff;"/><polygon points="182.69 11.66 182.69 62.93 219.94 62.93 219.94 79.38 165.76 79.38 165.76 25.48 179.6 11.66 182.69 11.66" style="fill:#fff;"/><polygon points="163.34 79.38 141.08 79.38 126.82 64.38 137.7 53.51 163.34 79.38" style="fill:#fff;"/><path d="M20.06,103.59l-1.62,3.43h-1.72v-.22l6.46-13.71h.75l6.4,13.71v.22h-1.7l-1.62-3.43h-6.93ZM20.61,102.16h5.82l-2.91-6.48-2.91,6.48Z" style="fill:#fff;"/><path d="M41.51,103.23c.1,1.86,2.24,2.58,3.94,2.58,1.66-.06,3.7-.63,3.76-2.65,0-2.24-2.1-2.28-3.98-2.54-2.52-.26-5.05-.91-5.05-3.68s2.59-4.02,5.03-4.02c2.4-.06,5.09,1.11,5.19,3.8h-1.54c-.16-1.76-2.02-2.32-3.6-2.32-1.53.06-3.43.69-3.43,2.52,0,2.06,2,2.14,3.68,2.36,2.75.32,5.33.81,5.33,3.88s-2.85,4.04-5.37,4.1c-2.57.06-5.47-1.17-5.57-4.02h1.6Z" style="fill:#fff;"/><path d="M63.03,103.23c.1,1.86,2.24,2.58,3.94,2.58,1.66-.06,3.7-.63,3.76-2.65,0-2.24-2.1-2.28-3.98-2.54-2.52-.26-5.05-.91-5.05-3.68s2.59-4.02,5.03-4.02c2.4-.06,5.09,1.11,5.19,3.8h-1.54c-.16-1.76-2.02-2.32-3.6-2.32-1.53.06-3.43.69-3.43,2.52,0,2.06,2,2.14,3.68,2.36,2.75.32,5.33.81,5.33,3.88s-2.85,4.04-5.37,4.1c-2.57.06-5.47-1.17-5.57-4.02h1.6Z" style="fill:#fff;"/><path d="M89.2,105.69v1.33h-6.46v-1.33h2.4v-11.23h-2.24v-1.31h6.14v1.31h-2.24v11.23h2.4Z" style="fill:#fff;"/><path d="M101.19,103.23c.1,1.86,2.24,2.58,3.94,2.58,1.66-.06,3.7-.63,3.76-2.65,0-2.24-2.1-2.28-3.98-2.54-2.52-.26-5.05-.91-5.05-3.68s2.59-4.02,5.03-4.02c2.4-.06,5.09,1.11,5.19,3.8h-1.54c-.16-1.76-2.02-2.32-3.6-2.32-1.53.06-3.43.69-3.43,2.52,0,2.06,2,2.14,3.68,2.36,2.75.32,5.33.81,5.33,3.88s-2.85,4.04-5.37,4.1c-2.57.06-5.47-1.17-5.57-4.02h1.6Z" style="fill:#fff;"/><path d="M120.39,94.64v-1.49h10.16v1.49h-4.28v12.38h-1.6v-12.38h-4.28Z" style="fill:#fff;"/><path d="M141.99,103.59l-1.62,3.43h-1.72v-.22l6.46-13.71h.75l6.4,13.71v.22h-1.7l-1.62-3.43h-6.93ZM142.54,102.16h5.82l-2.91-6.48-2.91,6.48Z" style="fill:#fff;"/><path d="M164.51,96.54l.14,3.8v6.67h-1.64v-13.9h.57l9.03,10.5-.18-3.98v-6.5h1.66v13.9h-.54l-9.05-10.5Z" style="fill:#fff;"/><path d="M192.67,92.99c2.67,0,5.33,1.45,6.16,4.34h-1.6c-.85-1.88-2.55-2.81-4.55-2.81-3.19-.06-5.33,2.34-5.33,5.57s2.12,5.57,5.31,5.57c2.12,0,3.92-1.07,4.65-3.07h1.6c-.79,3.11-3.47,4.59-6.24,4.59-3.86,0-7.01-2.73-7.01-7.09s3.11-7.15,7.01-7.09Z" style="fill:#fff;"/><path d="M218.38,94.6h-6.4v4.54h6.18v1.45h-6.18v4.91h6.62v1.53h-8.28v-13.86h8.06v1.45Z" style="fill:#fff;"/></svg>