<?xml version="1.0" encoding="UTF-8"?>
<svg xmlns="http://www.w3.org/2000/svg" viewBox="0 0 245.11 85">
  <polygon points="32.98 11.66 62.73 50.36 62.73 11.66 79.66 11.66 79.66 79.38 64.9 79.38 34.67 39.71 34.67 79.38 18.25 79.35 18.22 11.66 32.98 11.66" fill="#FFFFFF"/>
  <polygon points="109.65 11.66 109.65 41.16 140.85 11.66 160.67 11.66 109.65 62.69 109.65 79.38 92.72 79.38 92.72 11.66 109.65 11.66" fill="#FFFFFF"/>
  <polygon points="182.69 11.66 182.69 62.93 219.94 62.93 219.94 79.38 165.76 79.38 165.76 25.48 179.6 11.66 182.69 11.66" fill="#FFFFFF"/>
  <polygon points="163.34 79.38 141.08 79.38 126.82 64.38 137.7 53.51 163.34 79.38" fill="#FFFFFF"/>
</svg>
